<?xml version="1.0" encoding="utf-8"?>
<!-- Generator: Adobe Illustrator 21.0.0, SVG Export Plug-In . SVG Version: 6.00 Build 0)  -->
<svg version="1.1" id="Layer_1" xmlns="http://www.w3.org/2000/svg" xmlns:xlink="http://www.w3.org/1999/xlink" x="0px" y="0px"
	 viewBox="0 0 600 600" style="enable-background:new 0 0 600 600;" xml:space="preserve">
<style type="text/css">
	.st0{fill:#4D4134;}
	.st1{fill:#B29677;}
	.st2{fill:#CDAC89;}
	.st3{fill:#8C765E;}
	.st4{fill:#D8B692;}
</style>
<g>
	<rect class="st0" width="100" height="100"/>
	<rect y="100" class="st1" width="100" height="100"/>
	<rect y="200" class="st2" width="100" height="100"/>
	<rect y="300" class="st0" width="100" height="100"/>
	<rect y="400" class="st3" width="100" height="100"/>
	<rect y="500" class="st2" width="100" height="100"/>
</g>
<g>
	<rect x="100" class="st3" width="100" height="100"/>
	<rect x="100" y="100" class="st4" width="100" height="100"/>
	<rect x="100" y="200" class="st0" width="100" height="100"/>
	<rect x="100" y="300" class="st3" width="100" height="100"/>
	<rect x="100" y="400" class="st4" width="100" height="100"/>
	<rect x="100" y="500" class="st4" width="100" height="100"/>
</g>
<g>
	<rect x="200" class="st1" width="100" height="100"/>
	<rect x="200" y="100" class="st1" width="100" height="100"/>
	<rect x="200" y="200" class="st4" width="100" height="100"/>
	<rect x="200" y="300" class="st2" width="100" height="100"/>
	<rect x="200" y="400" class="st3" width="100" height="100"/>
	<rect x="200" y="500" class="st2" width="100" height="100"/>
</g>
<g>
	<rect x="400" class="st4" width="100" height="100"/>
	<rect x="400" y="100" class="st1" width="100" height="100"/>
	<rect x="400" y="200" class="st0" width="100" height="100"/>
	<rect x="400" y="300" class="st4" width="100" height="100"/>
	<rect x="400" y="400" class="st3" width="100" height="100"/>
	<rect x="400" y="500" class="st0" width="100" height="100"/>
</g>
<g>
	<rect x="500" class="st3" width="100" height="100"/>
	<rect x="500" y="100" class="st0" width="100" height="100"/>
	<rect x="500" y="200" class="st2" width="100" height="100"/>
	<rect x="500" y="300" class="st0" width="100" height="100"/>
	<rect x="500" y="400" class="st3" width="100" height="100"/>
	<rect x="500" y="500" class="st2" width="100" height="100"/>
</g>
<g>
	<rect x="300" class="st3" width="100" height="100"/>
	<rect x="300" y="100" class="st4" width="100" height="100"/>
	<rect x="300" y="200" class="st2" width="100" height="100"/>
	<rect x="300" y="300" class="st0" width="100" height="100"/>
	<rect x="300" y="400" class="st2" width="100" height="100"/>
	<rect x="300" y="500" class="st2" width="100" height="100"/>
</g>
</svg>
